<svg width="100" height="100" viewBox="0 0 100 100" fill="none" xmlns="http://www.w3.org/2000/svg">
<path d="M67.0451 41.8542L52.1307 66.1399C51.1719 67.708 48.8815 67.7211 47.9227 66.1531L32.9683 41.8674C31.9563 40.2466 33.1414 38.1514 35.0723 38.1514H64.9411C66.8453 38.1514 68.0305 40.2202 67.0451 41.8542ZM30.4915 31.1016H69.5219C71.3862 31.1016 72.4782 29.0328 71.4128 27.5174L51.891 0.97841C50.9721 -0.326137 49.0146 -0.326137 48.0958 0.97841L28.5872 27.5306C27.5352 29.0328 28.6272 31.1016 30.4915 31.1016ZM80.1218 24.8819C80.6544 25.4617 81.52 25.5803 82.1858 25.1587L93.9043 17.8453C95.0096 17.1601 94.8631 15.5261 93.6513 15.0385L64.8079 3.57433C63.2233 2.94182 61.865 4.85252 62.9969 6.09118L80.1218 24.8819ZM97.5264 23.8277L85.9677 31.0357C85.3152 31.4442 85.0489 32.2612 85.3418 32.9596L93.8777 53.7137C94.5035 55.2423 96.8073 54.926 96.9804 53.2921L99.9899 25.33C100.136 24.0122 98.6583 23.1162 97.5264 23.8277ZM76.9392 79.3566L54.5143 83.4152C53.742 83.547 53.196 84.2059 53.196 84.9702V98.4109C53.196 99.7418 54.754 100.48 55.8193 99.6496L78.2442 82.1502C79.5492 81.1356 78.5904 79.0667 76.9392 79.3566ZM79.3228 42.0387C78.4306 40.3388 75.9937 40.2729 75.0083 41.9201L57.1243 71.8456C56.0457 73.6377 57.5904 75.8515 59.6678 75.4957L90.5086 70.1458C92.1465 69.8559 93.0387 68.0769 92.2664 66.6143L79.3228 42.0387ZM6.09578 17.8585L17.8142 25.1718C18.4801 25.5803 19.3589 25.4749 19.8783 24.8951L37.0032 6.10436C38.1484 4.85252 36.7768 2.955 35.1922 3.5875L6.3488 15.0517C5.137 15.5393 4.99052 17.1601 6.09578 17.8585ZM14.0324 31.0357L2.47372 23.8277C1.3285 23.1162 -0.136304 24.0122 0.0101765 25.33L3.01969 53.2921C3.1928 54.926 5.49654 55.2423 6.12242 53.7137L14.6716 32.9728C14.9512 32.2612 14.6849 31.4442 14.0324 31.0357ZM45.4858 83.4152L23.0609 79.3566C21.4097 79.0536 20.4509 81.1224 21.7692 82.1502L44.1941 99.6496C45.2461 100.48 46.8174 99.7287 46.8174 98.4109V84.9702C46.8041 84.2059 46.2448 83.5602 45.4858 83.4152ZM42.8757 71.8456L24.9785 41.9333C23.9931 40.2861 21.5695 40.352 20.664 42.0519L7.72039 66.6143C6.94803 68.0769 7.84023 69.8559 9.47815 70.1458L40.3323 75.4957C42.4097 75.8515 43.9544 73.6377 42.8757 71.8456Z" fill="url(#paint0_linear_1086_2983)"/>
<defs>
<linearGradient id="paint0_linear_1086_2983" x1="49.9307" y1="-13.3148" x2="46.6419" y2="111.658" gradientUnits="userSpaceOnUse">
<stop offset="0.109427" stop-color="#2BB047"/>
<stop offset="1" stop-color="#0D1329"/>
</linearGradient>
</defs>
</svg>
